<?xml version="1.0" encoding="utf-8"?>
<!-- Generator: Adobe Illustrator 28.0.0, SVG Export Plug-In . SVG Version: 6.00 Build 0)  -->
<svg version="1.1" id="Calque_1" xmlns="http://www.w3.org/2000/svg" xmlns:xlink="http://www.w3.org/1999/xlink" x="0px" y="0px"
	 viewBox="0 0 29.3 90.6" style="enable-background:new 0 0 29.3 90.6;" xml:space="preserve">
<style type="text/css">
	.st0{fill:#E94F37;stroke:#E94F37;stroke-linecap:round;stroke-linejoin:round;stroke-miterlimit:10;}
</style>
<g>
	<path class="st0" d="M11.2,45.4c-0.3,0-0.6-0.3-0.6-0.6V11.3c0-0.3,0.3-0.6,0.6-0.6c0.3,0,0.6,0.3,0.6,0.6v33.6
		C11.8,45.2,11.5,45.4,11.2,45.4L11.2,45.4z"/>
	<path class="st0" d="M18.6,51.4c-0.3,0-0.6-0.3-0.6-0.6V26.2c0-0.3,0.3-0.6,0.6-0.6c0.3,0,0.6,0.3,0.6,0.6l0,0v24.7
		C19.2,51.2,19,51.4,18.6,51.4L18.6,51.4z"/>
	<path class="st0" d="M15,1.6C8.5,1.6,3.2,6.8,3.2,13.3v39.1c0,3,2.2,5.6,5.2,6.2c1.8,0.3,3.6,0.5,5.4,0.6
		c-0.2,1.5-0.7,6.1,1.6,13.5c1,3.2,1.6,6.5,1.8,9.8c0.2,2.2,0.1,4.5-0.2,6.7c-0.1,0.3,0.2,0.6,0.5,0.7c0,0,0,0,0,0c0,0,0.1,0,0.1,0
		c0.3,0,0.5-0.2,0.6-0.5c0.3-2.3,0.4-4.6,0.3-6.9c-0.2-3.4-0.8-6.8-1.8-10.1c-2.3-7.5-1.7-12.1-1.5-13.2c2.2,0,4.4-0.2,6.6-0.6
		c3-0.5,5.2-3.1,5.2-6.2V13.3C26.7,6.8,21.4,1.6,15,1.6z M25.5,52.4c0,2.5-1.8,4.6-4.2,5c-4.2,0.8-8.5,0.8-12.7,0
		c-2.4-0.4-4.2-2.5-4.2-5V13.3C4.4,7.5,9.1,2.8,15,2.8s10.5,4.7,10.5,10.5V52.4z"/>
</g>
</svg>
